<?xml version="1.0"?>
<!DOCTYPE svg PUBLIC "-//W3C//DTD SVG 1.1//EN" "http://www.w3.org/Graphics/SVG/1.1/DTD/svg11.dtd">
<svg xmlns="http://www.w3.org/2000/svg" xmlns:xl="http://www.w3.org/1999/xlink" version="1.1" viewBox="245 1784 145 145" width="145pt" height="145pt"><metadata xmlns:dc="http://purl.org/dc/elements/1.1/"><dc:date>2011-09-30 20:24Z</dc:date><!-- Produced by OmniGraffle Professional 5.3.2 --></metadata><defs></defs><g stroke="none" stroke-opacity="1" stroke-dasharray="none" fill="none" fill-opacity="1"><title>Canvas 1</title><g><title>Layer 1</title><path d="M 265.54218 1784.5771 L 369.54218 1784.5771 C 380.58786 1784.5771 389.54218 1793.5315 389.54218 1804.5771 L 389.54218 1908.5771 C 389.54218 1919.6228 380.58786 1928.5771 369.54218 1928.5771 L 265.54218 1928.5771 C 254.49648 1928.5771 245.54218 1919.6228 245.54218 1908.5771 C 245.54218 1908.5771 245.54218 1908.5771 245.54218 1908.5771 L 245.54218 1804.5771 C 245.54218 1793.5315 254.49648 1784.5771 265.54218 1784.5771 Z" fill="#3b3b3b"/><circle cx="317.54218" cy="1856.5771" r="44.640842" stroke="white" stroke-linecap="round" stroke-linejoin="round" stroke-width="13"/><path d="M 254.78587 1841.7954 L 274.33295 1867.7197 L 293.88 1841.7954 Z" fill="white"/><path d="M 383.54056 1874.4292 L 358.93448 1841.7954 L 334.3284 1874.4292 Z" fill="white"/><path d="M 383.54056 1874.4292 L 358.93448 1841.7954 L 334.3284 1874.4292 Z" stroke="#3b3b3b" stroke-linecap="round" stroke-linejoin="round" stroke-width="5"/><path d="M 353.92728 1867.1678 L 362.59167 1870.6685 L 357.78983 1882.5533 L 349.12543 1879.0527 Z" fill="white"/><path d="M 360.40463 1863.4166 L 368.94162 1867.2175 L 363.72794 1878.9276 L 355.19095 1875.1267 Z" fill="white"/><path d="M 251.2438 1841.7954 L 275.84988 1874.4292 L 300.45596 1841.7954 Z" fill="white"/><path d="M 251.2438 1841.7954 L 275.84988 1874.4292 L 300.45596 1841.7954 Z" stroke="#3b3b3b" stroke-linecap="round" stroke-linejoin="round" stroke-width="5"/><path d="M 277.16403 1830.8284 L 285.70102 1834.6293 L 280.48734 1846.3394 L 271.95035 1842.5385 Z" fill="white"/><path d="M 271.62988 1834.2561 L 280.29428 1837.7567 L 275.49243 1849.6416 L 266.82803 1846.141 Z" fill="white"/></g></g></svg>
