<?xml version="1.0" encoding="utf-8"?>
<!-- Generator: Adobe Illustrator 13.0.2, SVG Export Plug-In . SVG Version: 6.00 Build 14948)  -->
<!DOCTYPE svg PUBLIC "-//W3C//DTD SVG 1.1//EN" "http://www.w3.org/Graphics/SVG/1.1/DTD/svg11.dtd">
<svg version="1.1" id="Layer_5" xmlns="http://www.w3.org/2000/svg" xmlns:xlink="http://www.w3.org/1999/xlink" x="0px" y="0px"
	 width="128px" height="128px" viewBox="0 0 128 128" enable-background="new 0 0 128 128" xml:space="preserve">
<path fill="#3C3C3C" d="M128,117.199c0,5.965-4.835,10.801-10.8,10.801H10.8C4.835,128,0,123.164,0,117.199V10.8
	C0,4.835,4.835,0,10.8,0h106.4c5.965,0,10.8,4.835,10.8,10.8V117.199z"/>
<g id="Layer_3">
	<path fill="#FFFFFF" d="M69.184,61.22c1.62,1.181,2.201,3.149,1.294,4.397L35.14,119.093c-0.908,1.243-2.958,1.294-4.581,0.113
		l-12.172-8.874c-1.621-1.181-2.201-3.15-1.292-4.396l39.944-49.78c0.908-1.247,2.959-1.298,4.58-0.116L69.184,61.22z"/>
</g>
<path fill="#FFFFFF" d="M47.878,39.213c0,0,0.046-17.778,20.016-26.846c9.224,5.919,20.225,14.131,20.225,14.131
	s-16.25,8.25-20.579,28.886L47.878,39.213z"/>
<path fill="#FFFFFF" d="M69.689,57.08c0,0,1.863-15.516,20.375-29.169l21.924,15.667c0,0-12.613-1.702-21.769,28.181L69.689,57.08z"
	/>
<ellipse transform="matrix(0.8311 0.5561 -0.5561 0.8311 49.2507 -46.5302)" fill="none" stroke="#FFFFFF" stroke-width="2" cx="101.24" cy="57.829" rx="4.875" ry="17.162"/>
<ellipse transform="matrix(0.8157 0.5785 -0.5785 0.8157 25.7673 -28.8312)" fill="none" stroke="#FFFFFF" stroke-width="2" cx="58.126" cy="26.019" rx="4.875" ry="15.711"/>
</svg>
