<?xml version="1.0"?>
<!DOCTYPE svg PUBLIC "-//W3C//DTD SVG 1.1//EN" "http://www.w3.org/Graphics/SVG/1.1/DTD/svg11.dtd">
<svg xmlns="http://www.w3.org/2000/svg" xmlns:xl="http://www.w3.org/1999/xlink" version="1.1" viewBox="263 2884 162 162" width="162pt" height="162pt"><metadata xmlns:dc="http://purl.org/dc/elements/1.1/"><dc:date>2011-07-02 13:18Z</dc:date><!-- Produced by OmniGraffle Professional 5.2.3 --></metadata><defs></defs><g stroke="none" stroke-opacity="1" stroke-dasharray="none" fill="none" fill-opacity="1"><title>Canvas 1</title><g><title>Layer 1</title><path d="M 292 2893 L 396 2893 C 407.04568 2893 416 2901.9543 416 2913 L 416 3017 C 416 3028.0457 407.04568 3037 396 3037 L 292 3037 C 280.95432 3037 272 3028.0457 272 3017 C 272 3017 272 3017 272 3017 L 272 2913 C 272 2901.9543 280.95432 2893 292 2893 Z" fill="#3b3b3b"/><path d="M 368.863 2924.83 L 344 2957.8047 L 319.137 2924.83 Z" fill="white"/><line x1="280.93149" y1="2965.5" x2="313.90591" y2="2965.5" fill="#3b3b3b"/><line x1="280.93149" y1="2965.5" x2="313.90591" y2="2965.5" stroke="white" stroke-linecap="butt" stroke-linejoin="round" stroke-width="14"/><line x1="344" y1="3027.5557" x2="344" y2="2994.581" fill="#3b3b3b"/><line x1="344" y1="3027.5557" x2="344" y2="2994.581" stroke="white" stroke-linecap="butt" stroke-linejoin="round" stroke-width="14"/><path d="M 302.5 2940.637 L 335.47443 2965.5 L 302.5 2990.363 Z" fill="white"/><path d="M 319.137 3004.4746 L 344 2971.5 L 368.863 3004.4746 Z" fill="white"/><path d="M 384.47443 2990.363 L 351.5 2965.5 L 384.47443 2940.637 Z" fill="white"/><line x1="344" y1="2935.8247" x2="344" y2="2902.8501" fill="#3b3b3b"/><line x1="344" y1="2935.8247" x2="344" y2="2902.8501" stroke="white" stroke-linecap="butt" stroke-linejoin="round" stroke-width="14"/><line x1="374.5" y1="2965.5" x2="407.47443" y2="2965.5" fill="#3b3b3b"/><line x1="374.5" y1="2965.5" x2="407.47443" y2="2965.5" stroke="white" stroke-linecap="butt" stroke-linejoin="round" stroke-width="14"/></g></g></svg>
