<?xml version="1.0"?>
<!DOCTYPE svg PUBLIC "-//W3C//DTD SVG 1.1//EN" "http://www.w3.org/Graphics/SVG/1.1/DTD/svg11.dtd">
<svg xmlns="http://www.w3.org/2000/svg" xmlns:xl="http://www.w3.org/1999/xlink" version="1.1" viewBox="-5 1369 163 163" width="163pt" height="163pt"><metadata xmlns:dc="http://purl.org/dc/elements/1.1/"><dc:date>2011-04-28 23:00Z</dc:date><!-- Produced by OmniGraffle Professional 5.2.3 --></metadata><defs></defs><g stroke="none" stroke-opacity="1" stroke-dasharray="none" fill="none" fill-opacity="1"><title>Canvas 1</title><g><title>Layer 1</title><path d="M 24.85437 1378.6406 L 128.85437 1378.6406 C 139.90007 1378.6406 148.85437 1387.595 148.85437 1398.6406 L 148.85437 1502.6406 C 148.85437 1513.6863 139.90007 1522.6406 128.85437 1522.6406 L 24.85437 1522.6406 C 13.808675 1522.6406 4.85437 1513.6863 4.85437 1502.6406 C 4.85437 1502.6406 4.85437 1502.6406 4.85437 1502.6406 L 4.8543663 1398.6406 C 4.8543663 1387.595 13.808671 1378.6406 24.854366 1378.6406 Z" fill="#3b3b3b"/><path d="M 28.300972 1398.8208 L 98.8835 1398.8208 C 101.64492 1398.8208 103.8835 1401.0593 103.8835 1403.8208 L 103.8835 1495.7998 C 103.8835 1498.5613 101.64492 1500.7998 98.8835 1500.7998 L 28.300972 1500.7998 C 25.539549 1500.7998 23.300972 1498.5613 23.300972 1495.7998 C 23.300972 1495.7998 23.300972 1495.7998 23.300972 1495.7998 L 23.300968 1403.8208 C 23.300968 1401.0593 25.539545 1398.8208 28.300968 1398.8208 Z" fill="white"/></g></g></svg>
