<?xml version="1.0"?>
<!DOCTYPE svg PUBLIC "-//W3C//DTD SVG 1.1//EN" "http://www.w3.org/Graphics/SVG/1.1/DTD/svg11.dtd">
<svg xmlns="http://www.w3.org/2000/svg" xmlns:xl="http://www.w3.org/1999/xlink" version="1.1" viewBox="298 2837 163 163" width="163pt" height="163pt"><metadata xmlns:dc="http://purl.org/dc/elements/1.1/"><dc:date>2011-02-28 19:18Z</dc:date><!-- Produced by OmniGraffle Professional 5.2.3 --></metadata><defs></defs><g stroke="none" stroke-opacity="1" stroke-dasharray="none" fill="none" fill-opacity="1"><title>Canvas 1</title><g><title>Layer 1</title><path d="M 327.94946 2846.5 L 431.94946 2846.5 C 442.99515 2846.5 451.94946 2855.4543 451.94946 2866.5 L 451.94946 2970.5 C 451.94946 2981.5457 442.99515 2990.5 431.94946 2990.5 L 327.94946 2990.5 C 316.90378 2990.5 307.94946 2981.5457 307.94946 2970.5 C 307.94946 2970.5 307.94946 2970.5 307.94946 2970.5 L 307.94946 2866.5 C 307.94946 2855.4543 316.90378 2846.5 327.94946 2846.5 Z" fill="#3b3b3b"/><path d="M 372.19843 2906.6128 C 378.7636 2913.178 378.7636 2923.822 372.19843 2930.3872 C 365.63327 2936.9524 354.98904 2936.9524 348.42389 2930.3872 C 341.8587 2923.822 341.8587 2913.178 348.42389 2906.6128 C 354.98904 2900.0476 365.63327 2900.0476 372.19843 2906.6128" stroke="#f9ffff" stroke-linecap="butt" stroke-linejoin="bevel" stroke-width="13"/><path d="M 440.31116 2905.375 L 423.5 2931.625 L 406.68884 2905.375 Z" fill="#b4b4b4"/><rect x="354.24387" y="2930.3501" width="12.1345825" height="26.25" fill="#f9ffff"/><rect x="354.24387" y="2880.5" width="12.1345825" height="26.25" fill="#f9ffff"/><rect x="371.5" y="2912.4326" width="26.249878" height="12.1347656" fill="#f9ffff"/><rect x="322.5" y="2912.4326" width="26.249878" height="12.1347656" fill="#f9ffff"/><path d="M 391.14194 2940.5615 L 382.56146 2949.1421 L 363.99997 2930.5806 L 372.58044 2922 Z" fill="#f9ffff"/><path d="M 354.24387 2903.8523 L 345.6634 2912.4329 L 327.1019 2893.8713 L 335.68237 2885.2908 Z" fill="#f9ffff"/><path d="M 347.1634 2923.0671 L 355.74387 2931.6477 L 337.18237 2950.2092 L 328.6019 2941.6287 Z" fill="#f9ffff"/><path d="M 384.93994 2886.8833 L 393.52042 2895.4639 L 374.95892 2914.0254 L 366.37845 2905.4448 Z" fill="#f9ffff"/></g></g></svg>
