<?xml version="1.0"?>
<!DOCTYPE svg PUBLIC "-//W3C//DTD SVG 1.1//EN" "http://www.w3.org/Graphics/SVG/1.1/DTD/svg11.dtd">
<svg xmlns="http://www.w3.org/2000/svg" xmlns:xl="http://www.w3.org/1999/xlink" version="1.1" viewBox="28 177 149 145" width="149pt" height="145pt"><metadata xmlns:dc="http://purl.org/dc/elements/1.1/"><dc:date>2011-09-25 11:30Z</dc:date><!-- Produced by OmniGraffle Professional 5.3.4 --></metadata><defs></defs><g stroke="none" stroke-opacity="1" stroke-dasharray="none" fill="none" fill-opacity="1"><title>Arbeitsfläche 1</title><g><title>Ebene 1</title><path d="M 50.492188 177.30469 L 154.49219 177.30469 C 165.53789 177.30469 174.49219 186.25899 174.49219 197.30469 L 174.49219 301.30469 C 174.49219 312.35037 165.53789 321.30469 154.49219 321.30469 L 50.492188 321.30469 C 39.446491 321.30469 30.492188 312.35037 30.492188 301.30469 C 30.492188 301.30469 30.492188 301.30469 30.492188 301.30469 L 30.492184 197.30469 C 30.492184 186.25899 39.446487 177.30469 50.492184 177.30469 Z" fill="#3b3b3b"/><path d="M 58.86322 233.09332 L 58.86322 284.94827 L 100.8573 271.98453 L 100.8573 220.12959 Z" fill="#b4b4b4"/><path d="M 58.86322 233.09332 L 58.86322 284.94827 L 100.8573 271.98453 L 100.8573 220.12959 Z" stroke="white" stroke-linecap="square" stroke-linejoin="round" stroke-width="5"/><path d="M 143.37668 233.09348 L 143.37668 284.94843 L 101.263145 271.98468 L 101.263153 220.12975 Z" fill="#969696"/><path d="M 143.37668 233.09348 L 143.37668 284.94843 L 101.263145 271.98468 L 101.263153 220.12975 Z" stroke="white" stroke-linecap="square" stroke-linejoin="round" stroke-width="5"/><path d="M 58.86322 286.06158 L 58.86322 234.20667 L 100.8573 247.1704 L 100.8573 299.02533 Z" fill="#e4e4e4"/><path d="M 58.86322 286.06158 L 58.86322 234.20667 L 100.8573 247.1704 L 100.8573 299.02533 Z" stroke="white" stroke-linecap="square" stroke-linejoin="round" stroke-width="5"/><path d="M 143.37668 286.0617 L 143.37668 234.20679 L 101.263145 247.17052 L 101.263145 299.02545 Z" fill="white"/><path d="M 143.37668 286.0617 L 143.37668 234.20679 L 101.263145 247.17052 L 101.263145 299.02545 Z" stroke="white" stroke-linecap="square" stroke-linejoin="round" stroke-width="5"/><path d="M 84.60324 202.82928 L 41.616936 215.81061 L 58.287262 232.18118 L 101.27357 219.19986 Z" fill="#dfdfdf"/><path d="M 84.60324 202.82928 L 41.616936 215.81061 L 58.287262 232.18118 L 101.27357 219.19986 Z" stroke="white" stroke-linecap="square" stroke-linejoin="round" stroke-width="5"/><path d="M 101.47728 246.7481 L 144.03801 233.66272 L 163.36739 219.79115 L 123.36959 231.57509 Z" fill="#ededed"/><path d="M 101.47728 246.7481 L 144.03801 233.66272 L 163.36739 219.79115 L 123.36959 231.57509 Z" stroke="white" stroke-linecap="square" stroke-linejoin="round" stroke-width="5"/><path d="M 58.863205 233.09344 L 58.863205 284.9484 L 100.857285 271.98465 L 100.857285 220.12971 Z" fill="#939393"/><path d="M 58.863205 233.09344 L 58.863205 284.9484 L 100.857285 271.98465 L 100.857285 220.12971 Z" stroke="#c5c5c5" stroke-linecap="round" stroke-linejoin="round" stroke-width="2"/><path d="M 143.37671 233.09343 L 143.37669 284.94836 L 101.26316 271.98462 L 101.26316 220.1297 Z" fill="#777"/><path d="M 143.37671 233.09343 L 143.37669 284.94836 L 101.26316 271.98462 L 101.26316 220.1297 Z" stroke="#c5c5c5" stroke-linecap="round" stroke-linejoin="round" stroke-width="2"/><path d="M 58.863205 286.06165 L 58.863205 234.20673 L 100.857285 247.17046 L 100.857285 299.02539 Z" fill="#e4e4e4"/><path d="M 58.863205 286.06165 L 58.863205 234.20673 L 100.857285 247.17046 L 100.857285 299.02539 Z" stroke="#434343" stroke-linecap="round" stroke-linejoin="round" stroke-width="2"/><path d="M 143.37671 286.0617 L 143.37671 234.20676 L 101.26316 247.17049 L 101.26316 299.02542 Z" fill="white"/><path d="M 143.37671 286.0617 L 143.37671 234.20676 L 101.26316 247.17049 L 101.26316 299.02542 Z" stroke="#434343" stroke-linecap="round" stroke-linejoin="round" stroke-width="2"/><path d="M 84.603256 202.82925 L 41.61695 215.81056 L 58.28728 232.18115 L 101.27358 219.19984 Z" fill="#dfdfdf"/><path d="M 84.603256 202.82925 L 41.61695 215.81056 L 58.28728 232.18115 L 101.27358 219.19984 Z" stroke="#434343" stroke-linecap="round" stroke-linejoin="round" stroke-width="2"/><path d="M 101.47734 246.74806 L 144.03807 233.66269 L 163.36745 219.79112 L 123.36965 231.57506 Z" fill="#ededed"/><path d="M 101.47734 246.74806 L 144.03807 233.66269 L 163.36745 219.79112 L 123.36965 231.57506 Z" stroke="#434343" stroke-linecap="round" stroke-linejoin="round" stroke-width="2"/></g></g></svg>
