<?xml version="1.0"?>
<!DOCTYPE svg PUBLIC "-//W3C//DTD SVG 1.1//EN" "http://www.w3.org/Graphics/SVG/1.1/DTD/svg11.dtd">
<svg xmlns="http://www.w3.org/2000/svg" xmlns:xl="http://www.w3.org/1999/xlink" version="1.1" viewBox="414 1031 145 145" width="145pt" height="145pt"><metadata xmlns:dc="http://purl.org/dc/elements/1.1/"><dc:date>2011-09-11 23:59Z</dc:date><!-- Produced by OmniGraffle Professional 5.3 --></metadata><defs></defs><g stroke="none" stroke-opacity="1" stroke-dasharray="none" fill="none" fill-opacity="1"><title>Canvas 1</title><g><title>Layer 1</title><path d="M 434.88672 1031.09973 L 538.88672 1031.09973 C 549.93243 1031.09973 558.88672 1040.0541 558.88672 1051.09973 L 558.88672 1155.0997 C 558.88672 1166.1454 549.93243 1175.0997 538.88672 1175.0997 L 434.88672 1175.0997 C 423.84103 1175.0997 414.88672 1166.1454 414.88672 1155.0997 C 414.88672 1155.0997 414.88672 1155.0997 414.88672 1155.0997 L 414.88672 1051.09973 C 414.88672 1040.0541 423.84103 1031.09973 434.88672 1031.09973 Z" fill="#3b3b3b"/><path d="M 472.10846 1087.7872 L 531.75287 1087.7872 C 534.51428 1087.7872 536.75287 1090.02576 536.75287 1092.7872 L 536.75287 1149.9794 C 536.75287 1152.74084 534.51428 1154.9794 531.75287 1154.9794 L 472.10846 1154.9794 C 469.34705 1154.9794 467.10846 1152.74084 467.10846 1149.9794 C 467.10846 1149.9794 467.10846 1149.9794 467.10846 1149.9794 L 467.10846 1092.7872 C 467.10846 1090.02576 469.34705 1087.7872 472.10846 1087.7872 Z" fill="white"/><path d="M 443.74957 1050.5432 L 503.39398 1050.5432 C 506.1554 1050.5432 508.39398 1052.78174 508.39398 1055.5432 L 508.39398 1112.73535 C 508.39398 1115.4968 506.1554 1117.73535 503.39398 1117.73535 L 443.74957 1117.73535 C 440.98816 1117.73535 438.74957 1115.4968 438.74957 1112.73535 C 438.74957 1112.73535 438.74957 1112.73535 438.74957 1112.73535 L 438.74957 1055.5432 C 438.74957 1052.78174 440.98816 1050.5432 443.74957 1050.5432 Z" fill="#e0e5e5"/></g></g></svg>
