<?xml version="1.0" encoding="UTF-8" standalone="no"?>
<svg
   xmlns:dc="http://purl.org/dc/elements/1.1/"
   xmlns:cc="http://creativecommons.org/ns#"
   xmlns:rdf="http://www.w3.org/1999/02/22-rdf-syntax-ns#"
   xmlns:svg="http://www.w3.org/2000/svg"
   xmlns="http://www.w3.org/2000/svg"
   xmlns:sodipodi="http://sodipodi.sourceforge.net/DTD/sodipodi-0.dtd"
   xmlns:inkscape="http://www.inkscape.org/namespaces/inkscape"
   version="1.1"
   viewBox="61 2091 146 147"
   width="146pt"
   height="147pt"
   id="svg3316"
   inkscape:version="0.48.2 r9819"
   sodipodi:docname="project.svg">
  <sodipodi:namedview
     pagecolor="#ffffff"
     bordercolor="#666666"
     borderopacity="1"
     objecttolerance="10"
     gridtolerance="10"
     guidetolerance="10"
     inkscape:pageopacity="0"
     inkscape:pageshadow="2"
     inkscape:window-width="841"
     inkscape:window-height="847"
     id="namedview3338"
     showgrid="false"
     inkscape:zoom="1.8163505"
     inkscape:cx="137.27054"
     inkscape:cy="100.54079"
     inkscape:window-x="55"
     inkscape:window-y="195"
     inkscape:window-maximized="0"
     inkscape:current-layer="svg3316" />
  <metadata
     id="metadata3318">
    <dc:date>2009-03-04 23:36Z</dc:date>
    <!-- Produced by OmniGraffle Professional 4.2.1 -->
    <rdf:RDF>
      <cc:Work
         rdf:about="">
        <dc:format>image/svg+xml</dc:format>
        <dc:type
           rdf:resource="http://purl.org/dc/dcmitype/StillImage" />
        <dc:title></dc:title>
      </cc:Work>
    </rdf:RDF>
  </metadata>
  <defs
     id="defs3320" />
  <g
     id="g3322"
     style="fill:#3b3b3b;fill-opacity:1;stroke:none"
     transform="matrix(1,0,0,-1,0,4329)">
    <title
       id="title3324">Canvas 1</title>
    <g
       id="g3326"
       style="fill:#3b3b3b;fill-opacity:1">
      <title
         id="title3328">Layer 1</title>
      <path
         d="m 82,2092.5 104,0 c 11.0457,0 20,8.9543 20,20 l 0,104 c 0,11.0457 -8.9543,20 -20,20 l -104,0 c -11.045692,0 -20,-8.9543 -20,-20 0,0 0,0 0,0 l 0,-104 c 0,-11.0457 8.954308,-20 20,-20 z"
         id="path3330"
         style="fill:#3b3b3b;fill-opacity:1"
         inkscape:connector-curvature="0" />
      <path
         d="m 129,2128 14,14 -14,0 z"
         id="path3332"
         style="fill:#3b3b3b;fill-opacity:1"
         inkscape:connector-curvature="0" />
      <rect
         x="96.026001"
         y="2128"
         width="33.724396"
         height="14"
         id="rect3334"
         style="fill:#3b3b3b;fill-opacity:1" />
      <rect
         x="89.5"
         y="2142"
         width="89"
         height="65.630859"
         id="rect3336"
         style="fill:#3b3b3b;fill-opacity:1" />
    </g>
  </g>
  <path
     id="path4628"
     d="m 98.704817,2172.0518 30.418433,-15.7527 v -9.301 h -3.4301 c -1.7027,0 -3.32316,-0.3599 -4.79966,-1.0186 v 4.9814 l -30.418431,15.7611 v 12.516 h 8.225646 v -7.1862 z m 81.224133,7.1905 v -12.5203 l -30.41844,-15.7569 v -4.9771 c -1.47239,0.6534 -3.09695,1.0144 -4.79555,1.0144 h -3.42186 l -0.004,9.301 30.41844,15.7569 v 7.1863 h 8.22153 z m -40.6059,0 v -32.2399 h -8.22565 v 32.2399 h 8.22565 z m 46.01016,4.2982 H 166.3114 c -4.54056,0 -8.22565,3.851 -8.22565,8.5962 v 19.8786 c 0,4.7451 3.68509,8.5962 8.22565,8.5962 h 19.02181 c 4.54055,0 8.22563,-3.8511 8.22563,-8.5962 v -19.8786 c 0,-4.7452 -3.68508,-8.5962 -8.22563,-8.5962 z m -81.22826,0 H 85.083148 c -4.540558,0 -8.225646,3.851 -8.225646,8.5962 v 19.8786 c 0,4.7451 3.685088,8.5962 8.225646,8.5962 h 19.021802 c 4.54055,0 8.22564,-3.8511 8.22564,-8.5962 v -19.8786 c 0,-4.7452 -3.68509,-8.5962 -8.22564,-8.5962 z m 21.59232,-40.8319 h 19.02181 c 4.54055,0 8.22563,-3.8512 8.22563,-8.5963 v -19.8787 c 0,-4.7451 -3.68508,-8.596 -8.22563,-8.596 h -19.02181 c -4.54056,0 -8.22565,3.8509 -8.22565,8.596 v 19.8787 c 0,4.7451 3.68509,8.5963 8.22565,8.5963 z m 19.02181,40.8319 h -19.02181 c -4.54056,0 -8.22565,3.851 -8.22565,8.5962 v 19.8786 c 0,4.7451 3.68509,8.5962 8.22565,8.5962 h 19.02181 c 4.54055,0 8.22563,-3.8511 8.22563,-8.5962 v -19.8786 c 0,-4.7452 -3.68508,-8.5962 -8.22563,-8.5962 z"
     style="fill:#ffffff;fill-opacity:1;stroke:#000000;stroke-width:0.15999999;stroke-linecap:butt;stroke-linejoin:miter;stroke-miterlimit:4;stroke-opacity:1;stroke-dasharray:none;marker-start:none;marker-mid:none"
     inkscape:connector-curvature="0" />
</svg>
