<?xml version="1.0"?>
<!DOCTYPE svg PUBLIC "-//W3C//DTD SVG 1.1//EN" "http://www.w3.org/Graphics/SVG/1.1/DTD/svg11.dtd">
<svg xmlns="http://www.w3.org/2000/svg" xmlns:xl="http://www.w3.org/1999/xlink" version="1.1" viewBox="414 1209 145 145" width="145pt" height="145pt"><metadata xmlns:dc="http://purl.org/dc/elements/1.1/"><dc:date>2011-07-28 06:05Z</dc:date><!-- Produced by OmniGraffle Professional 5.3 --></metadata><defs></defs><g stroke="none" stroke-opacity="1" stroke-dasharray="none" fill="none" fill-opacity="1"><title>Canvas 1</title><g><title>Layer 1</title><path d="M 434.88672 1209.7346 L 538.88672 1209.7346 C 549.93243 1209.7346 558.88672 1218.689 558.88672 1229.7346 L 558.88672 1333.7346 C 558.88672 1344.7803 549.93243 1353.7346 538.88672 1353.7346 L 434.88672 1353.7346 C 423.84103 1353.7346 414.88672 1344.7803 414.88672 1333.7346 C 414.88672 1333.7346 414.88672 1333.7346 414.88672 1333.7346 L 414.88672 1229.7346 C 414.88672 1218.689 423.84103 1209.7346 434.88672 1209.7346 Z" fill="#3b3b3b"/><circle cx="490.19696" cy="1257.3425" r="18.197056" stroke="white" stroke-linecap="round" stroke-linejoin="round" stroke-width="24"/><rect x="477.73645" y="1308.5029" width="24.92102" height="24.920898" fill="white"/><rect x="477.73645" y="1275.53955" width="24.92102" height="19.390137" fill="white"/><path d="M 459.3575 1258.1776 L 488.54758 1254.2118 C 491.28387 1253.8401 493.8034 1255.7568 494.17517 1258.4932 C 494.43878 1260.4335 493.54553 1262.349 491.88974 1263.3943 L 466.97968 1279.1194 C 464.6446 1280.5935 461.55667 1279.8955 460.0826 1277.5604 C 459.892 1277.25854 459.73431 1276.937 459.61218 1276.60144 L 455.33218 1264.8422 C 454.38773 1262.2473 455.72565 1259.37805 458.32053 1258.4336 C 458.65604 1258.3115 459.0037 1258.2257 459.3575 1258.1776 Z" fill="#3b3b3b"/><path d="M 454.521 1269.03955 L 472.92303 1269.03955 C 475.68445 1269.03955 477.92303 1271.2781 477.92303 1274.03955 L 477.92303 1288.96045 C 477.92303 1291.7219 475.68445 1293.96045 472.92303 1293.96045 L 454.521 1293.96045 C 451.75958 1293.96045 449.521 1291.7219 449.521 1288.96045 C 449.521 1288.96045 449.521 1288.96045 449.521 1288.96045 L 449.521 1274.03955 C 449.521 1271.2781 451.75958 1269.03955 454.521 1269.03955 C 454.521 1269.03955 454.521 1269.03955 454.521 1269.03955 Z" fill="#3b3b3b"/></g></g></svg>
