<?xml version="1.0"?>
<!DOCTYPE svg PUBLIC "-//W3C//DTD SVG 1.1//EN" "http://www.w3.org/Graphics/SVG/1.1/DTD/svg11.dtd">
<svg xmlns="http://www.w3.org/2000/svg" xmlns:xl="http://www.w3.org/1999/xlink" version="1.1" viewBox="242 59 145 145" width="145pt" height="145pt"><metadata xmlns:dc="http://purl.org/dc/elements/1.1/"><dc:date>2011-09-29 13:20Z</dc:date><!-- Produced by OmniGraffle Professional 5.3.4 --></metadata><defs><filter id="Shadow" filterUnits="userSpaceOnUse"><feGaussianBlur in="SourceAlpha" result="blur" stdDeviation="3.488"/><feOffset in="blur" result="offset" dx="0" dy="4"/><feFlood flood-color="black" flood-opacity=".75" result="flood"/><feComposite in="flood" in2="offset" operator="in"/></filter></defs><g stroke="none" stroke-opacity="1" stroke-dasharray="none" fill="none" fill-opacity="1"><title>Arbeitsfläche 1</title><g><title>Ebene 1</title><g><use xl:href="#id424_Graphic" filter="url(#Shadow)"/></g><path d="M 262.5 59.109375 L 366.5 59.109375 C 377.54568 59.109375 386.5 68.063683 386.5 79.109375 L 386.5 183.10938 C 386.5 194.15508 377.54568 203.10938 366.5 203.10938 L 262.5 203.10938 C 251.4543 203.10938 242.5 194.15508 242.5 183.10938 C 242.5 183.10938 242.5 183.10938 242.5 183.10938 L 242.5 79.109375 C 242.5 68.063683 251.4543 59.109375 262.5 59.109375 Z" fill="#3b3b3b"/><path d="M 344.86697 111.82368 C 342.22107 108.37713 339.9661 104.02719 336.92844 101.483 C 333.89078 98.93881 330.59238 97.62486 326.63922 96.55699 C 322.68607 95.48912 317.80261 94.762337 313.20712 95.07514 C 308.61163 95.387947 303.62473 96.13784 299.0635 98.434013 C 294.50229 100.730186 289.0654 104.76982 285.83716 108.85356 C 282.60892 112.9373 280.74817 118.62572 279.69208 122.938904 C 278.63599 127.25209 279.00742 130.90852 279.50003 134.73526 C 279.99265 138.562 281.0196 142.398865 282.64801 145.90158 C 284.27643 149.4043 286.65356 152.90688 289.27148 155.75366 C 291.8894 158.60045 295.06143 161.13644 298.35712 162.98401 C 301.6528 164.83157 305.67297 166.14696 309.04752 166.84015 C 312.42206 167.53334 315.44128 167.42992 318.60638 167.14362 C 321.77148 166.85732 324.79178 166.42595 328.04004 165.12213 C 331.2883 163.81831 335.12701 161.86786 338.0978 159.31995 C 341.0686 156.77203 343.27725 152.9951 345.86658 149.83316" stroke="#fafafa" stroke-linecap="butt" stroke-linejoin="round" stroke-width="20"/><g id="id424_Graphic"><path d="M 363.57166 95.469864 L 352.99988 136.152405 L 316.39157 115.496635 Z" fill="white"/></g></g></g></svg>
