<?xml version="1.0"?>
<!DOCTYPE svg PUBLIC "-//W3C//DTD SVG 1.1//EN" "http://www.w3.org/Graphics/SVG/1.1/DTD/svg11.dtd">
<svg xmlns="http://www.w3.org/2000/svg" xmlns:xl="http://www.w3.org/1999/xlink" version="1.1" viewBox="50 1784 145 145" width="145pt" height="145pt"><metadata xmlns:dc="http://purl.org/dc/elements/1.1/"><dc:date>2011-09-30 02:06Z</dc:date><!-- Produced by OmniGraffle Professional 5.3.2 --></metadata><defs></defs><g stroke="none" stroke-opacity="1" stroke-dasharray="none" fill="none" fill-opacity="1"><title>Canvas 1</title><g><title>Layer 1</title><path d="M 70.38803 1784.5771 L 174.38803 1784.5771 C 185.43373 1784.5771 194.38803 1793.5315 194.38803 1804.5771 L 194.38803 1908.5771 C 194.38803 1919.6228 185.43373 1928.5771 174.38803 1928.5771 L 70.38803 1928.5771 C 59.342335 1928.5771 50.38803 1919.6228 50.38803 1908.5771 C 50.38803 1908.5771 50.38803 1908.5771 50.38803 1908.5771 L 50.38803 1804.5771 C 50.38803 1793.5315 59.342335 1784.5771 70.38803 1784.5771 Z" fill="#3b3b3b"/><circle cx="122.38804" cy="1856.5771" r="30.362152" stroke="white" stroke-linecap="round" stroke-linejoin="round" stroke-width="13"/><path d="M 82.9596 1886.0402 L 153.67061 1815.3291 C 155.62323 1813.3765 158.78906 1813.3765 160.74168 1815.3291 C 160.74168 1815.3291 160.74168 1815.3291 160.74168 1815.3291 L 161.8165 1816.4039 C 163.76912 1818.3566 163.76912 1821.5223 161.8165 1823.475 L 91.105484 1894.186 C 89.15286 1896.1387 85.98704 1896.1387 84.034416 1894.186 C 84.034416 1894.186 84.03441 1894.186 84.03441 1894.186 L 82.959595 1893.1112 C 81.00698 1891.1586 81.006973 1887.9928 82.959595 1886.0402 Z" fill="white"/></g></g></svg>
