<?xml version="1.0"?>
<!DOCTYPE svg PUBLIC "-//W3C//DTD SVG 1.1//EN" "http://www.w3.org/Graphics/SVG/1.1/DTD/svg11.dtd">
<svg xmlns="http://www.w3.org/2000/svg" xmlns:xl="http://www.w3.org/1999/xlink" version="1.1" viewBox="277 1207 163 163" width="163pt" height="163pt"><metadata xmlns:dc="http://purl.org/dc/elements/1.1/"><dc:date>2011-04-28 23:00Z</dc:date><!-- Produced by OmniGraffle Professional 5.2.3 --></metadata><defs></defs><g stroke="none" stroke-opacity="1" stroke-dasharray="none" fill="none" fill-opacity="1"><title>Canvas 1</title><g><title>Layer 1</title><path d="M 306.69418 1216.5145 L 410.69418 1216.5145 C 421.73987 1216.5145 430.69418 1225.4689 430.69418 1236.5145 L 430.69418 1340.5145 C 430.69418 1351.5602 421.73987 1360.5145 410.69418 1360.5145 L 306.69418 1360.5145 C 295.6485 1360.5145 286.69418 1351.5602 286.69418 1340.5145 C 286.69418 1340.5145 286.69418 1340.5145 286.69418 1340.5145 L 286.69418 1236.5145 C 286.69418 1225.4689 295.6485 1216.5145 306.69418 1216.5145 Z" fill="#3b3b3b"/><path d="M 311.49417 1235.5249 L 405.8942 1235.5249 C 408.6556 1235.5249 410.8942 1237.7634 410.8942 1240.5249 L 410.8942 1310.5339 C 410.8942 1313.2954 408.6556 1315.5339 405.8942 1315.5339 L 311.49417 1315.5339 C 308.73276 1315.5339 306.49417 1313.2954 306.49417 1310.5339 C 306.49417 1310.5339 306.49417 1310.5339 306.49417 1310.5339 L 306.49417 1240.5249 C 306.49417 1237.7634 308.73276 1235.5249 311.49417 1235.5249 C 311.49417 1235.5249 311.49417 1235.5249 311.49417 1235.5249 Z" fill="white"/></g></g></svg>
