<?xml version="1.0"?>
<!DOCTYPE svg PUBLIC "-//W3C//DTD SVG 1.1//EN" "http://www.w3.org/Graphics/SVG/1.1/DTD/svg11.dtd">
<svg xmlns="http://www.w3.org/2000/svg" xmlns:xl="http://www.w3.org/1999/xlink" version="1.1" viewBox="78 1379 144 145" width="12pc" height="145pt"><metadata xmlns:dc="http://purl.org/dc/elements/1.1/"><dc:date>2011-07-28 05:51Z</dc:date><!-- Produced by OmniGraffle Professional 5.3 --></metadata><defs></defs><g stroke="none" stroke-opacity="1" stroke-dasharray="none" fill="none" fill-opacity="1"><title>Canvas 1</title><g><title>Layer 1</title><path d="M 98 1379.7466 L 202 1379.7466 C 213.0457 1379.7466 222 1388.7009 222 1399.7466 L 222 1503.7466 C 222 1514.7922 213.0457 1523.7466 202 1523.7466 L 98 1523.7466 C 86.95431 1523.7466 78 1514.7922 78 1503.7466 C 78 1503.7466 78 1503.7466 78 1503.7466 L 78 1399.7466 C 78 1388.7009 86.95431 1379.7466 98 1379.7466 Z" fill="#3b3b3b"/><path d="M 110.399994 1408.3633 L 114.79999 1408.3633 C 117.56141 1408.3633 119.79999 1410.6018 119.79999 1413.3633 L 119.79999 1417.7632 C 119.79999 1420.5247 117.56141 1422.7632 114.79999 1422.7632 L 110.399994 1422.7632 C 107.63857 1422.7632 105.399994 1420.5247 105.399994 1417.7632 C 105.399994 1417.7632 105.399994 1417.7632 105.399994 1417.7632 L 105.399994 1413.3633 C 105.399994 1410.6018 107.63857 1408.3633 110.399994 1408.3633 Z" fill="white"/><path d="M 137.92532 1408.3633 L 188.29337 1408.3633 C 191.0548 1408.3633 193.29337 1410.6018 193.29337 1413.3633 L 193.29337 1417.7632 C 193.29337 1420.5247 191.0548 1422.7632 188.29337 1422.7632 L 137.92532 1422.7632 C 135.163895 1422.7632 132.92532 1420.5247 132.92532 1417.7632 C 132.92532 1417.7632 132.92532 1417.7632 132.92532 1417.7632 L 132.92532 1413.3633 C 132.92532 1410.6018 135.163895 1408.3633 137.92532 1408.3633 Z" fill="white"/><path d="M 110.399994 1444.0574 L 114.79999 1444.0574 C 117.56141 1444.0574 119.79999 1446.2959 119.79999 1449.0574 L 119.79999 1453.4573 C 119.79999 1456.21875 117.56141 1458.4573 114.79999 1458.4573 L 110.399994 1458.4573 C 107.63857 1458.4573 105.399994 1456.21875 105.399994 1453.4573 C 105.399994 1453.4573 105.399994 1453.4573 105.399994 1453.4573 L 105.399994 1449.0574 C 105.399994 1446.2959 107.63857 1444.0574 110.399994 1444.0574 Z" fill="white"/><path d="M 137.92532 1444.0574 L 188.29337 1444.0574 C 191.0548 1444.0574 193.29337 1446.2959 193.29337 1449.0574 L 193.29337 1453.4573 C 193.29337 1456.21875 191.0548 1458.4573 188.29337 1458.4573 L 137.92532 1458.4573 C 135.163895 1458.4573 132.92532 1456.21875 132.92532 1453.4573 C 132.92532 1453.4573 132.92532 1453.4573 132.92532 1453.4573 L 132.92532 1449.0574 C 132.92532 1446.2959 135.163895 1444.0574 137.92532 1444.0574 Z" fill="white"/><path d="M 109.828 1479.7516 L 114.228 1479.7516 C 116.98942 1479.7516 119.228 1481.9901 119.228 1484.7516 L 119.228 1489.1515 C 119.228 1491.913 116.98942 1494.1515 114.228 1494.1515 L 109.828 1494.1515 C 107.06658 1494.1515 104.828 1491.913 104.828 1489.1515 C 104.828 1489.1515 104.828 1489.1515 104.828 1489.1515 L 104.828 1484.7516 C 104.828 1481.9901 107.06658 1479.7516 109.828 1479.7516 Z" fill="white"/><path d="M 137.35333 1479.7516 L 187.72137 1479.7516 C 190.4828 1479.7516 192.72137 1481.9901 192.72137 1484.7516 L 192.72137 1489.1515 C 192.72137 1491.913 190.4828 1494.1515 187.72137 1494.1515 L 137.35333 1494.1515 C 134.5919 1494.1515 132.35333 1491.913 132.35333 1489.1515 C 132.35333 1489.1515 132.35333 1489.1515 132.35333 1489.1515 L 132.35333 1484.7516 C 132.35333 1481.9901 134.5919 1479.7516 137.35333 1479.7516 Z" fill="white"/></g></g></svg>
