<?xml version="1.0"?>
<!DOCTYPE svg PUBLIC "-//W3C//DTD SVG 1.1//EN" "http://www.w3.org/Graphics/SVG/1.1/DTD/svg11.dtd">
<svg xmlns="http://www.w3.org/2000/svg" xmlns:xl="http://www.w3.org/1999/xlink" version="1.1" viewBox="77 1207 144 145" width="12pc" height="145pt"><metadata xmlns:dc="http://purl.org/dc/elements/1.1/"><dc:date>2011-07-28 05:51Z</dc:date><!-- Produced by OmniGraffle Professional 5.3 --></metadata><defs></defs><g stroke="none" stroke-opacity="1" stroke-dasharray="none" fill="none" fill-opacity="1"><title>Canvas 1</title><g><title>Layer 1</title><path d="M 97 1207.375 L 201 1207.375 C 212.0457 1207.375 221 1216.32935 221 1227.375 L 221 1331.375 C 221 1342.42065 212.0457 1351.375 201 1351.375 L 97 1351.375 C 85.95431 1351.375 77 1342.42065 77 1331.375 C 77 1331.375 77 1331.375 77 1331.375 L 77 1227.375 C 77 1216.32935 85.95431 1207.375 97 1207.375 Z" fill="#3b3b3b"/><path d="M 110.399994 1235.9917 L 132.54936 1235.9917 C 135.31079 1235.9917 137.54936 1238.2302 137.54936 1240.9917 L 137.54936 1262.7651 C 137.54936 1265.5266 135.31079 1267.7651 132.54936 1267.7651 L 110.399994 1267.7651 C 107.63857 1267.7651 105.399994 1265.5266 105.399994 1262.7651 C 105.399994 1262.7651 105.399994 1262.7651 105.399994 1262.7651 L 105.399994 1240.9917 C 105.399994 1238.2302 107.63857 1235.9917 110.399994 1235.9917 Z" fill="white"/><path d="M 165.57199 1235.9917 L 187.72134 1235.9917 C 190.48277 1235.9917 192.72134 1238.2302 192.72134 1240.9917 L 192.72134 1262.7651 C 192.72134 1265.5266 190.48277 1267.7651 187.72134 1267.7651 L 165.57199 1267.7651 C 162.81056 1267.7651 160.57199 1265.5266 160.57199 1262.7651 C 160.57199 1262.7651 160.57199 1262.7651 160.57199 1262.7651 L 160.57199 1240.9917 C 160.57199 1238.2302 162.81056 1235.9917 165.57199 1235.9917 Z" fill="white"/><path d="M 166.14398 1288.5664 L 188.29333 1288.5664 C 191.05476 1288.5664 193.29333 1290.8049 193.29333 1293.5664 L 193.29333 1315.33984 C 193.29333 1318.1013 191.05476 1320.33984 188.29333 1320.33984 L 166.14398 1320.33984 C 163.38255 1320.33984 161.14398 1318.1013 161.14398 1315.33984 C 161.14398 1315.33984 161.14398 1315.33984 161.14398 1315.33984 L 161.14398 1293.5664 C 161.14398 1290.8049 163.38255 1288.5664 166.14398 1288.5664 Z" fill="white"/><path d="M 110.399994 1288.5664 L 132.54936 1288.5664 C 135.31079 1288.5664 137.54936 1290.8049 137.54936 1293.5664 L 137.54936 1315.33984 C 137.54936 1318.1013 135.31079 1320.33984 132.54936 1320.33984 L 110.399994 1320.33984 C 107.63857 1320.33984 105.399994 1318.1013 105.399994 1315.33984 C 105.399994 1315.33984 105.399994 1315.33984 105.399994 1315.33984 L 105.399994 1293.5664 C 105.399994 1290.8049 107.63857 1288.5664 110.399994 1288.5664 Z" fill="white"/></g></g></svg>
