<?xml version="1.0"?>
<!DOCTYPE svg PUBLIC "-//W3C//DTD SVG 1.1//EN" "http://www.w3.org/Graphics/SVG/1.1/DTD/svg11.dtd">
<svg xmlns="http://www.w3.org/2000/svg" xmlns:xl="http://www.w3.org/1999/xlink" version="1.1" viewBox="226 2845 145 145" width="145pt" height="145pt"><metadata xmlns:dc="http://purl.org/dc/elements/1.1/"><dc:date>2011-10-20 18:11Z</dc:date><!-- Produced by OmniGraffle Professional 5.3.2 --></metadata><defs></defs><g stroke="none" stroke-opacity="1" stroke-dasharray="none" fill="none" fill-opacity="1"><title>Canvas 1</title><g><title>Layer 1</title><path d="M 246.33255 2845.875 L 350.33255 2845.875 C 361.37823 2845.875 370.33255 2854.8293 370.33255 2865.875 L 370.33255 2969.875 C 370.33255 2980.9207 361.37823 2989.875 350.33255 2989.875 L 246.33255 2989.875 C 235.28685 2989.875 226.33255 2980.9207 226.33255 2969.875 C 226.33255 2969.875 226.33255 2969.875 226.33255 2969.875 L 226.33255 2865.875 C 226.33255 2854.8293 235.28685 2845.875 246.33255 2845.875 Z" fill="#3b3b3b"/><path d="M 271.1134 2884.9009 L 338.60168 2884.9009 C 343.57224 2884.9009 347.60168 2888.9304 347.60168 2893.9009 L 347.60168 2954.3032 C 347.60168 2959.2737 343.57224 2963.3032 338.60168 2963.3032 L 271.1134 2963.3032 C 266.14285 2963.3032 262.1134 2959.2737 262.1134 2954.3032 C 262.1134 2954.3032 262.1134 2954.3032 262.1134 2954.3032 L 262.1134 2893.9009 C 262.1134 2888.9304 266.14285 2884.9009 271.1134 2884.9009 Z" fill="#8f8f8f"/><path d="M 259.08838 2869.0962 L 326.57672 2869.0962 C 331.54727 2869.0962 335.57672 2873.1257 335.57672 2878.0962 L 335.57672 2938.4985 C 335.57672 2943.469 331.54727 2947.4985 326.57672 2947.4985 L 259.08838 2947.4985 C 254.11781 2947.4985 250.08838 2943.469 250.08838 2938.4985 C 250.08838 2938.4985 250.08838 2938.4985 250.08838 2938.4985 L 250.08838 2878.0962 C 250.08838 2873.1257 254.11781 2869.0962 259.08838 2869.0962 Z" fill="#c1c1c1"/><line x1="273.38712" y1="2888.8516" x2="312.27798" y2="2927.7427" fill="#3b3b3b"/><line x1="273.38712" y1="2888.8516" x2="312.27798" y2="2927.7427" stroke="black" stroke-linecap="round" stroke-linejoin="round" stroke-width="11"/><line x1="312.27798" y1="2888.8516" x2="273.38712" y2="2927.7427" fill="#3b3b3b"/><line x1="312.27798" y1="2888.8516" x2="273.38712" y2="2927.7427" stroke="black" stroke-linecap="round" stroke-linejoin="round" stroke-width="11"/></g></g></svg>
